<svg width="24" height="24" viewBox="0 0 24 24" fill="none" xmlns="http://www.w3.org/2000/svg" class="text-blue-600"><path d="M4 5a1 1 0 0 1 1-1h14a1 1 0 0 1 1 1v14a1 1 0 0 1-1 1H5a1 1 0 0 1-1-1V5z" stroke="currentColor" stroke-width="2" stroke-linecap="round" stroke-linejoin="round"></path><path d="M7.735 15.126C7.14 15.568 6 15.272 6 14.5s1.14-1.068 1.735-.626c.544.44 1.476 1.195 2 1.626.73.522 1.35.962 2.265.962.915 0 1.394-.44 2.265-.962.524-.431 1.456-1.185 2-1.626.595-.442 1.735-.146 1.735.626s-1.14 1.068-1.735.626c-.544-.44-1.476-1.195-2-1.626-.871-.522-1.35-.962-2.265-.962-.915 0-1.535.44-2.265.962-.524.431-1.456 1.185-2 1.626z" fill="currentColor"></path></svg>