<svg height="38" width="38" fill="none" viewBox="0 0 38 38" xmlns="http://www.w3.org/2000/svg"><path d="M26.6456 33.3644C28.9013 31.9332 30.461 24.2576 30.1179 21.972C30.1179 21.972 29.7603 20.7449 28.8879 20.7449C28.0154 20.7448 27.6525 21.664 27.6525 21.664C27.6525 21.664 26.1632 27.1689 24.8165 27.7897C23.4698 28.4105 22.1639 27.7897 22.1639 27.7897C23.1526 31.5395 24.3898 34.7956 26.6456 33.3644Z" fill="#34322D"></path><path d="M13.1835 19.0001C13.9799 18.2267 16.2926 17.6387 18.7094 18.7093C21.1263 19.7799 21.5395 23.3512 20.5198 24.52C19.5 25.6888 17.2552 24.52 17.2552 24.52" stroke="#34322D" stroke-linecap="round" stroke-linejoin="round" stroke-width="2.32653"></path><path d="M11.4397 9.69396C10.5766 8.72087 9.6951 8.23984 8.82252 7.81181" stroke="#34322D" stroke-linecap="round" stroke-miterlimit="10" stroke-width="2.32653"></path><path d="M15.0997 8.11479C14.9283 7.07649 14.6375 6.20404 14.3467 5.04077" stroke="#34322D" stroke-linecap="round" stroke-miterlimit="10" stroke-width="2.32653"></path><path d="M18.9993 8.82142C19.1578 7.60419 19.581 6.49489 20.1104 5.62244" stroke="#34322D" stroke-linecap="round" stroke-miterlimit="10" stroke-width="2.32653"></path><path d="M23.2733 14.0561C25.581 14.5173 25.5812 14.5164 25.5813 14.5156L25.5817 14.5138L25.5823 14.5103L25.5837 14.503L25.5865 14.4873C25.5884 14.4763 25.5904 14.4644 25.5924 14.4516C25.5966 14.426 25.601 14.3965 25.6053 14.3635C25.6139 14.2979 25.6226 14.2159 25.6284 14.121C25.6395 13.9382 25.6418 13.6726 25.595 13.3645C25.5064 12.7808 25.1665 11.6745 23.9686 11.0332L23.7316 10.9063L23.4727 10.8346L22.8772 13.0538C23.4082 13.3381 23.2733 14.0561 23.2733 14.0561ZM22.9043 15.5202L23.2733 14.0561L25.581 14.5173L25.5683 14.5848L25.1958 16.0629C25.1241 16.4262 25.1147 16.6339 25.1186 16.7436C25.1217 16.8329 25.1334 16.8622 25.1391 16.8766C25.1393 16.8772 25.1395 16.8777 25.1397 16.8782C25.1543 16.9154 25.192 16.9958 25.3297 17.2047C25.3859 17.2898 25.4442 17.3752 25.5186 17.4839C25.5382 17.5127 25.559 17.5431 25.5812 17.5756C25.6811 17.7219 25.798 17.8945 25.9219 18.0876C26.6959 19.2938 26.7719 20.4515 26.7678 21.1933C26.7678 21.2042 26.7677 21.2151 26.7676 21.2259C26.8601 21.2576 26.9584 21.2896 27.0628 21.3228C27.0972 21.3338 27.1429 21.3482 27.1908 21.3634C27.2582 21.3846 27.3299 21.4073 27.3812 21.4237C27.4821 21.4561 27.6109 21.4982 27.7355 21.5446C27.8222 21.5769 27.9054 21.6091 27.9836 21.6416C28.0588 21.6727 28.1505 21.7126 28.247 21.7613C28.3219 21.7991 28.4437 21.8639 28.5816 21.9595L29.7937 22.4811L29.7762 24.0339C29.7658 24.9468 29.3985 25.9093 29.138 26.5051C28.8508 27.1621 28.4713 27.8627 28.122 28.3283C27.6341 28.9787 27.0812 29.6654 26.4162 30.1045C26.0241 30.3634 25.5507 30.5692 24.9921 30.6367C24.4944 30.6968 24.0637 30.6302 23.7473 30.5532L23.654 30.5341C23.5603 30.5148 23.4259 30.4871 23.2624 30.4531C22.9358 30.3851 22.4906 30.2914 22.0185 30.1888C21.148 29.9998 19.9681 29.7353 19.4115 29.5507L19.3713 29.5373L19.3316 29.5226C19.0848 29.4309 18.6674 29.3281 17.9761 29.1704C17.9343 29.1609 17.8917 29.1512 17.8484 29.1414C17.252 29.0056 16.518 28.8386 15.823 28.6281C15.1032 28.4101 14.2128 28.0859 13.4569 27.5576C12.6634 27.0031 11.7613 26.0253 11.711 24.5586C11.7035 24.3391 11.7085 24.1269 11.7221 23.9254C11.3648 23.5382 11.0649 23.0319 10.9134 22.3835C10.7657 21.7519 10.8474 21.1919 10.951 20.7989C11.0548 20.4048 11.2126 20.0603 11.3445 19.8029C11.389 19.7159 11.4352 19.6302 11.4812 19.5474C11.045 19.4098 10.5524 19.2397 10.0729 19.0353C9.44665 18.7684 8.55808 18.328 7.89471 17.6171C7.53743 17.2342 7.16333 16.6854 7.01207 15.9679C6.85378 15.217 6.98531 14.4966 7.29354 13.8797C8.04388 12.378 9.4771 11.8475 10.7518 11.8016C11.9029 11.7601 13.1277 12.0822 14.2251 12.4671C15.225 12.8178 16.6562 13.4701 17.8719 14.0382C18.2724 13.3816 18.8002 12.6396 19.2999 12.0403L19.3992 11.9213L19.5141 11.8167C20.3739 11.0342 21.3397 10.7711 22.0757 10.7146C22.4365 10.687 22.7471 10.7076 22.9795 10.7378C23.0969 10.753 23.1982 10.7712 23.2804 10.7884C23.3216 10.797 23.3584 10.8054 23.3905 10.8133C23.4065 10.8172 23.4214 10.821 23.4351 10.8245L23.4548 10.8297L23.464 10.8322L23.4684 10.8334L23.4705 10.834C23.4716 10.8343 23.4727 10.8346 22.8772 13.0538C22.8772 13.0538 21.9486 12.7967 21.1503 13.5014C21.1423 13.5085 21.1342 13.5157 21.1262 13.523C21.1015 13.5527 21.0766 13.5827 21.0518 13.6131C21.0161 13.6569 20.9803 13.7013 20.9445 13.7463C20.934 13.7595 20.9235 13.7728 20.9131 13.7861C20.3706 14.4743 19.8389 15.2867 19.5818 15.801C19.3387 16.0102 19.1217 16.2164 18.9642 16.4042C18.7798 16.6242 18.677 16.819 18.7094 16.9643C18.3673 16.8087 17.9519 16.6134 17.4988 16.4005C17.1879 16.2543 16.8593 16.0998 16.5244 15.9441C15.4441 15.4418 14.2989 14.9268 13.4747 14.6377C11.4456 13.9261 9.94965 13.8357 9.40361 14.9285C8.68331 16.3701 11.6083 17.2053 13.078 17.625C13.3875 17.7134 13.6325 17.7834 13.7654 17.8367C14.9591 18.3158 14.3868 19.2697 13.8188 20.2164C13.4528 20.8264 13.0886 21.4334 13.1997 21.9085C13.2553 22.1464 13.3653 22.3193 13.4961 22.4452C13.8469 22.7827 14.3472 22.7806 14.3472 22.7806C14.3472 22.7806 14.0246 23.6049 14.0562 24.5256C14.0631 24.7282 14.1176 24.9127 14.2115 25.0814C14.7692 26.0825 16.7164 26.5261 18.3525 26.8987C19.0396 27.0552 19.6719 27.1993 20.1233 27.3668C20.9323 27.6353 24.2345 28.3061 24.2345 28.3061C24.8439 28.466 25.2217 28.2725 26.2239 26.9364C26.6402 26.3816 27.4203 24.812 27.4298 23.9636C27.3032 23.9091 27.2944 23.8901 27.2855 23.8711C27.2733 23.8449 27.261 23.8185 26.941 23.6993C26.834 23.6594 26.6907 23.6142 26.5268 23.5625C25.8445 23.3473 24.8038 23.0191 24.5257 22.4898C24.3906 22.2328 24.4013 21.888 24.4137 21.4848C24.433 20.8578 24.4567 20.0896 23.9441 19.2908C23.8183 19.0946 23.6976 18.9182 23.5847 18.7531C22.9419 17.8134 22.5519 17.2432 22.9043 15.5202ZM12.1557 18.3581C12.1572 18.3539 12.1567 18.3549 12.1548 18.3607C12.1552 18.3598 12.1555 18.3589 12.1557 18.3581ZM26.7559 21.9332C26.7562 21.9328 26.7559 21.9241 26.7541 21.9083C26.7547 21.9257 26.7557 21.9336 26.7559 21.9332Z" fill="#34322D" fill-rule="evenodd"></path></svg>